<?xml version="1.0" standalone="no"?>
<!DOCTYPE svg PUBLIC "-//W3C//DTD SVG 20010904//EN"
 "http://www.w3.org/TR/2001/REC-SVG-20010904/DTD/svg10.dtd">
<svg version="1.0" xmlns="http://www.w3.org/2000/svg"
 width="300.000000pt" height="300.000000pt" viewBox="0 0 300.000000 300.000000"
 preserveAspectRatio="xMidYMid meet">

<g transform="translate(0.000000,300.000000) scale(0.100000,-0.100000)"
fill="#000000" stroke="none">
<path d="M1111 2679 c-263 -46 -476 -244 -535 -498 -8 -34 -16 -64 -18 -66 -2
-1 -36 -19 -77 -41 -287 -149 -420 -505 -303 -807 87 -224 282 -380 519 -417
45 -7 315 -10 798 -8 l730 3 80 28 c220 78 357 215 431 432 23 67 27 98 28
190 1 192 -58 331 -199 471 -87 87 -182 142 -285 166 -45 10 -53 16 -90 74
-85 131 -237 211 -388 203 -47 -3 -47 -2 -132 82 -91 91 -181 144 -292 173
-76 20 -201 27 -267 15z m259 -95 c125 -37 231 -111 305 -213 l33 -45 103 0
c92 -1 110 -4 159 -28 71 -35 147 -110 176 -174 24 -50 24 -51 86 -62 188 -35
358 -187 425 -379 23 -67 27 -93 26 -188 0 -164 -44 -274 -156 -392 -58 -61
-87 -82 -161 -118 -50 -24 -118 -49 -150 -54 -82 -15 -1450 -15 -1532 0 -32 5
-100 30 -150 54 -74 36 -103 57 -161 118 -109 115 -155 227 -157 382 -2 178
48 302 168 421 70 69 193 144 236 144 14 0 18 12 23 59 14 126 92 272 194 360
61 53 170 107 253 126 77 18 201 13 280 -11z"/>
<path d="M1050 1680 l0 -30 155 0 155 0 0 30 0 30 -155 0 -155 0 0 -30z"/>
<path d="M1552 1605 c0 -37 3 -51 7 -36 9 35 29 37 34 4 2 -15 4 -1 4 32 0 33
-2 48 -4 33 -2 -16 -10 -28 -18 -28 -8 0 -16 12 -18 28 -2 15 -4 0 -5 -33z"/>
<path d="M1654 1647 c-3 -8 -4 -32 -2 -53 2 -31 7 -39 23 -39 17 0 20 7 20 50
0 39 -4 50 -18 53 -9 2 -20 -3 -23 -11z m31 -42 c0 -22 -5 -40 -12 -42 -9 -3
-13 9 -13 42 0 33 4 45 13 43 7 -3 12 -21 12 -43z"/>
<path d="M1741 1605 l1 -60 9 44 c5 26 5 50 -1 60 -7 11 -9 -2 -9 -44z"/>
<path d="M1780 1629 c0 -17 -4 -28 -10 -24 -14 9 -12 -5 5 -35 14 -24 14 -22
15 33 0 31 -2 57 -5 57 -3 0 -5 -14 -5 -31z"/>
<path d="M1830 1605 c0 -53 1 -56 23 -53 19 3 22 9 22 53 0 44 -3 50 -22 53
-22 3 -23 0 -23 -53z m38 -6 c-2 -19 -7 -33 -13 -32 -12 3 -19 49 -10 71 10
26 27 -2 23 -39z"/>
<path d="M1922 1623 c-2 -53 5 -73 28 -73 23 0 30 20 28 73 l-1 42 -6 -50 c-4
-35 -10 -50 -21 -50 -11 0 -17 15 -21 50 l-6 50 -1 -42z"/>
<path d="M2021 1603 c1 -32 4 -46 6 -30 5 34 16 35 29 0 8 -23 9 -19 9 27 0
49 -2 55 -22 58 -22 3 -23 0 -22 -55z m34 27 c0 -7 -6 -15 -12 -17 -8 -3 -13
4 -13 17 0 13 5 20 13 18 6 -3 12 -11 12 -18z"/>
<path d="M2116 1623 c-4 -21 -9 -47 -12 -58 -5 -19 -4 -19 9 -2 17 21 27 22
27 2 0 -8 4 -15 8 -15 5 0 4 25 -1 55 -6 30 -14 55 -18 55 -4 0 -10 -17 -13
-37z m24 -24 c0 -5 -4 -9 -10 -9 -5 0 -10 7 -10 16 0 8 5 12 10 9 6 -3 10 -10
10 -16z"/>
<path d="M2194 1645 c-4 -9 2 -25 15 -39 31 -33 26 -63 -7 -36 -7 5 -6 3 2 -6
8 -9 19 -13 25 -10 17 11 13 41 -9 61 -15 13 -17 22 -10 29 8 8 14 6 21 -4 9
-13 10 -13 6 0 -5 21 -36 25 -43 5z"/>
<path d="M1050 1600 l0 -30 155 0 155 0 0 30 0 30 -155 0 -155 0 0 -30z"/>
<path d="M1143 1523 c12 -12 33 -18 62 -18 29 0 50 6 62 18 16 16 14 17 -62
17 -76 0 -78 -1 -62 -17z"/>
<path d="M650 1235 c0 -87 3 -105 15 -105 12 0 15 18 15 105 0 87 -3 105 -15
105 -12 0 -15 -18 -15 -105z"/>
<path d="M768 1268 l-3 -73 -32 55 c-27 46 -33 51 -33 30 -1 -37 61 -150 83
-150 15 0 17 12 17 105 0 85 -3 105 -15 105 -11 0 -15 -17 -17 -72z"/>
<path d="M875 1315 c-36 -35 -36 -120 0 -159 25 -27 45 -34 45 -16 0 6 -9 19
-20 30 -14 14 -20 33 -20 65 0 32 6 51 20 65 11 11 20 25 20 30 0 17 -20 11
-45 -15z"/>
<path d="M940 1329 c0 -6 10 -19 23 -29 17 -14 22 -29 22 -65 0 -36 -5 -51
-22 -65 -21 -17 -31 -40 -17 -40 41 0 79 72 69 131 -8 47 -75 108 -75 68z"/>
<path d="M1062 1329 c3 -8 18 -56 33 -106 27 -89 45 -118 45 -70 0 12 -11 58
-23 102 -17 59 -27 81 -41 83 -13 3 -17 -1 -14 -9z"/>
<path d="M1197 1333 c-10 -16 -47 -160 -47 -181 0 -46 18 -18 45 71 15 50 30
98 33 105 4 13 -24 17 -31 5z"/>
<path d="M1306 1239 c-20 -56 -34 -104 -32 -107 15 -14 34 13 55 78 12 40 26
68 31 64 4 -5 17 -39 30 -76 13 -42 27 -68 36 -68 19 0 19 0 -20 110 -20 56
-40 96 -48 98 -11 2 -26 -26 -52 -99z"/>
<path d="M1532 1333 c-20 -8 -42 -59 -42 -98 0 -54 32 -105 66 -105 11 0 2 22
-16 40 -14 14 -20 33 -20 65 0 32 6 51 20 65 30 30 26 47 -8 33z"/>
<path d="M1580 1326 c0 -18 27 -29 36 -14 4 5 0 14 -7 19 -20 13 -29 11 -29
-5z"/>
<path d="M1713 1325 c-49 -34 -49 -146 0 -180 40 -28 54 -7 15 24 -31 25 -31
107 0 132 39 31 25 52 -15 24z"/>
<path d="M1770 1330 c0 -5 9 -19 20 -30 14 -14 20 -33 20 -65 0 -32 -6 -51
-20 -65 -11 -11 -20 -24 -20 -30 0 -17 20 -11 45 15 21 20 25 34 25 80 0 46
-4 60 -25 80 -25 26 -45 32 -45 15z"/>
<path d="M1900 1235 c0 -87 3 -105 15 -105 12 0 15 18 15 105 0 87 -3 105 -15
105 -12 0 -15 -18 -15 -105z"/>
<path d="M1940 1325 c0 -10 10 -15 29 -15 60 0 83 -89 36 -135 -13 -14 -33
-25 -45 -25 -11 0 -20 -4 -20 -10 0 -5 14 -10 31 -10 47 0 89 47 89 100 0 54
-14 79 -55 96 -44 18 -65 18 -65 -1z"/>
<path d="M2110 1235 c0 -87 3 -105 15 -105 12 0 15 18 15 105 0 87 -3 105 -15
105 -12 0 -15 -18 -15 -105z"/>
<path d="M2160 1325 c0 -11 11 -15 40 -15 29 0 40 4 40 15 0 11 -11 15 -40 15
-29 0 -40 -4 -40 -15z"/>
<path d="M2160 1240 c0 -5 16 -10 35 -10 19 0 35 5 35 10 0 6 -16 10 -35 10
-19 0 -35 -4 -35 -10z"/>
<path d="M1343 1183 c9 -2 23 -2 30 0 6 3 -1 5 -18 5 -16 0 -22 -2 -12 -5z"/>
<path d="M1593 1163 c-14 -5 -18 -33 -5 -33 4 0 14 5 22 10 17 11 2 30 -17 23z"/>
<path d="M2160 1140 c0 -5 18 -10 40 -10 22 0 40 5 40 10 0 6 -18 10 -40 10
-22 0 -40 -4 -40 -10z"/>
</g>
</svg>
